<?xml version="1.0" encoding="utf-8"?>
<!-- Generator: Adobe Illustrator 24.0.1, SVG Export Plug-In . SVG Version: 6.00 Build 0)  -->
<svg version="1.1" id="Layer_1" xmlns="http://www.w3.org/2000/svg" xmlns:xlink="http://www.w3.org/1999/xlink" x="0px" y="0px"
	 viewBox="0 0 371.6 75" style="enable-background:new 0 0 371.6 75;" xml:space="preserve">
<style type="text/css">
	.st0{fill:#FFFFFF;}
</style>
<path class="st0" d="M111.6,34L125,55.2l-8.4,0L107.1,41l-9.2,14.2h-8.8L102.6,34L89.9,14.2h8.4l8.9,13.6l8.7-13.6h8.8L111.6,34z
	 M137.5,14.3h7.4l8.7,18.1l8.6-18.1h7.4l-12,25.4v15.5h-8V39.7L137.5,14.3z M206.4,14.4h5.8v40.9h-7V35.5l-7.9,18.7l-7.9-18.9v20h-7
	V14.4h5.8l9.1,21.9C197.3,36.3,206.4,14.4,206.4,14.4z M242.1,14.1l12.5,41.3h-7.1l-2-6.5h-11.1l-2,6.5h-7.1l12.5-41.3H242.1
	L242.1,14.1z M236.4,42.3h7.1L240,29.1L236.4,42.3L236.4,42.3z M262.1,14.3h30v6.4h-11.5V55h-7V20.7h-11.5L262.1,14.3L262.1,14.3z
	 M304.8,14.3h7v40.9h-7C304.8,55.2,304.8,14.3,304.8,14.3z M349.9,14.5c2.9,0,5.7,0.5,8.6,1.5v6.9H358c-2.5-1.3-5.3-2-8.4-2
	c-6.1,0-10.8,2.5-14.3,7.6c-1.2,2.2-1.7,4.4-1.7,6.7c0,4.9,2.5,8.9,7.6,12c2.6,1.4,5.5,2.1,8.6,2.1c2.7,0,5.5-0.7,8.6-2.1V54
	c-2.7,1-5.7,1.4-8.9,1.4c-7.5,0-13.9-2.9-19.1-8.6c-2.9-3.7-4.3-7.6-4.3-11.8c0-7.2,3.7-13,11-17.5C341,15.5,345.3,14.5,349.9,14.5
	L349.9,14.5z M9.1,74L49.8,3.5L67.4,34L9.1,74z"/>
<path class="st0" d="M10.2,18.1L67.4,34L49.8,3.5L10.2,18.1z"/>
</svg>
